solid OpenSCAD_Model
  facet normal 1 -0 0
    outer loop
      vertex 20 0 40
      vertex 20 20 0
      vertex 20 20 40
    endloop
  endfacet
  facet normal 1 0 0
    outer loop
      vertex 20 20 0
      vertex 20 0 40
      vertex 20 0 0
    endloop
  endfacet
  facet normal 0 0 1
    outer loop
      vertex 12.452 2.79599 40
      vertex 14.8762 5.27586 40
      vertex 14.944 6.099 40
    endloop
  endfacet
  facet normal 0 0 1
    outer loop
      vertex 13.7572 8.64 40
      vertex 14.944 6.099 40
      vertex 14.6473 7.58124 40
    endloop
  endfacet
  facet normal 0 0 1
    outer loop
      vertex 12.2738 9.27524 40
      vertex 14.944 6.099 40
      vertex 13.7572 8.64 40
    endloop
  endfacet
  facet normal 0 0 1
    outer loop
      vertex 14.6727 4.56149 40
      vertex 13.236 3.07224 40
      vertex 14.3337 3.95587 40
    endloop
  endfacet
  facet normal 0 -0 1
    outer loop
      vertex 12.452 2.79599 40
      vertex 14.944 6.099 40
      vertex 12.2738 9.27524 40
    endloop
  endfacet
  facet normal 0 0 1
    outer loop
      vertex 14.3337 3.95587 40
      vertex 13.236 3.07224 40
      vertex 13.859 3.459 40
    endloop
  endfacet
  facet normal 0 0 1
    outer loop
      vertex 14.8762 5.27586 40
      vertex 13.236 3.07224 40
      vertex 14.6727 4.56149 40
    endloop
  endfacet
  facet normal 0 -0 1
    outer loop
      vertex 13.236 3.07224 40
      vertex 14.8762 5.27586 40
      vertex 12.452 2.79599 40
    endloop
  endfacet
  facet normal 0 0 1
    outer loop
      vertex 12.2738 9.27524 40
      vertex 11.507 2.63025 40
      vertex 12.452 2.79599 40
    endloop
  endfacet
  facet normal 0 0 1
    outer loop
      vertex 10.197 9.487 40
      vertex 11.507 2.63025 40
      vertex 12.2738 9.27524 40
    endloop
  endfacet
  facet normal 0 0 1
    outer loop
      vertex 11.507 2.63025 40
      vertex 10.197 9.487 40
      vertex 10.401 2.575 40
    endloop
  endfacet
  facet normal 0 0 1
    outer loop
      vertex 5.36899 2.575 40
      vertex 10.197 9.487 40
      vertex 5.36899 9.487 40
    endloop
  endfacet
  facet normal 0 0 1
    outer loop
      vertex 10.197 9.487 40
      vertex 5.36899 2.575 40
      vertex 10.401 2.575 40
    endloop
  endfacet
  facet normal 0 0 1
    outer loop
      vertex 12.1997 17.1869 40
      vertex 13.846 14.684 40
      vertex 13.7799 15.4024 40
    endloop
  endfacet
  facet normal 0 0 1
    outer loop
      vertex 11.4927 17.3947 40
      vertex 13.846 14.684 40
      vertex 12.1997 17.1869 40
    endloop
  endfacet
  facet normal 0 0 1
    outer loop
      vertex 12.788 16.896 40
      vertex 13.7799 15.4024 40
      vertex 13.5815 16.0105 40
    endloop
  endfacet
  facet normal 0 0 1
    outer loop
      vertex 13.846 14.684 40
      vertex 11.4927 17.3947 40
      vertex 13.782 13.9286 40
    endloop
  endfacet
  facet normal 0 0 1
    outer loop
      vertex 12.788 16.896 40
      vertex 13.5815 16.0105 40
      vertex 13.2509 16.5084 40
    endloop
  endfacet
  facet normal 0 -0 1
    outer loop
      vertex 12.2443 11.9467 40
      vertex 13.782 13.9286 40
      vertex 11.4927 17.3947 40
    endloop
  endfacet
  facet normal 0 0 1
    outer loop
      vertex 13.7799 15.4024 40
      vertex 12.788 16.896 40
      vertex 12.1997 17.1869 40
    endloop
  endfacet
  facet normal 0 -0 1
    outer loop
      vertex 12.822 12.288 40
      vertex 13.59 13.2775 40
      vertex 12.2443 11.9467 40
    endloop
  endfacet
  facet normal 0 0 1
    outer loop
      vertex 13.59 13.2775 40
      vertex 12.822 12.288 40
      vertex 13.27 12.7306 40
    endloop
  endfacet
  facet normal 0 0 1
    outer loop
      vertex 13.782 13.9286 40
      vertex 12.2443 11.9467 40
      vertex 13.59 13.2775 40
    endloop
  endfacet
  facet normal 0 0 1
    outer loop
      vertex 12.2443 11.9467 40
      vertex 11.4927 17.3947 40
      vertex 11.5352 11.703 40
    endloop
  endfacet
  facet normal 0 0 1
    outer loop
      vertex 10.6672 17.5194 40
      vertex 11.5352 11.703 40
      vertex 11.4927 17.3947 40
    endloop
  endfacet
  facet normal 0 0 1
    outer loop
      vertex 11.5352 11.703 40
      vertex 10.6672 17.5194 40
      vertex 10.6948 11.5567 40
    endloop
  endfacet
  facet normal 0 0 1
    outer loop
      vertex 9.72299 17.561 40
      vertex 10.6948 11.5567 40
      vertex 10.6672 17.5194 40
    endloop
  endfacet
  facet normal 0 0 1
    outer loop
      vertex 9.72299 17.561 40
      vertex 9.72299 11.508 40
      vertex 10.6948 11.5567 40
    endloop
  endfacet
  facet normal -0 0 1
    outer loop
      vertex 5.36899 17.561 40
      vertex 9.72299 11.508 40
      vertex 9.72299 17.561 40
    endloop
  endfacet
  facet normal 0 0 1
    outer loop
      vertex 9.72299 11.508 40
      vertex 5.36899 17.561 40
      vertex 5.36899 11.508 40
    endloop
  endfacet
  facet normal -0 0 1
    outer loop
      vertex 17.4849 6.81325 40
      vertex 20 0 40
      vertex 20 20 40
    endloop
  endfacet
  facet normal 0 0 1
    outer loop
      vertex 20 0 40
      vertex 17.4849 6.81325 40
      vertex 17.562 5.896 40
    endloop
  endfacet
  facet normal 0 0 1
    outer loop
      vertex 20 20 40
      vertex 17.2535 7.64799 40
      vertex 17.4849 6.81325 40
    endloop
  endfacet
  facet normal -0 0 1
    outer loop
      vertex 16.3906 14.1809 40
      vertex 17.2535 7.64799 40
      vertex 20 20 40
    endloop
  endfacet
  facet normal 0 0 1
    outer loop
      vertex 16.3906 14.1809 40
      vertex 20 20 40
      vertex 16.45 14.995 40
    endloop
  endfacet
  facet normal 0 0 1
    outer loop
      vertex 20 20 40
      vertex 16.0296 17.0254 40
      vertex 16.45 14.995 40
    endloop
  endfacet
  facet normal 0 0 1
    outer loop
      vertex 20 20 40
      vertex 14.7682 18.4757 40
      vertex 16.0296 17.0254 40
    endloop
  endfacet
  facet normal 0 0 1
    outer loop
      vertex 20 20 40
      vertex 12.6661 19.3459 40
      vertex 14.7682 18.4757 40
    endloop
  endfacet
  facet normal 0 0 1
    outer loop
      vertex 20 20 40
      vertex 9.72299 19.636 40
      vertex 12.6661 19.3459 40
    endloop
  endfacet
  facet normal -0 0 1
    outer loop
      vertex 0 20 40
      vertex 9.72299 19.636 40
      vertex 20 20 40
    endloop
  endfacet
  facet normal 0 0 1
    outer loop
      vertex 2.77899 19.636 40
      vertex 0 20 40
      vertex 2.77899 0.5 40
    endloop
  endfacet
  facet normal 0 0 1
    outer loop
      vertex 9.72299 19.636 40
      vertex 0 20 40
      vertex 2.77899 19.636 40
    endloop
  endfacet
  facet normal -0 0 1
    outer loop
      vertex 17.4459 4.68936 40
      vertex 20 0 40
      vertex 17.562 5.896 40
    endloop
  endfacet
  facet normal -0 0 1
    outer loop
      vertex 17.0975 3.6245 40
      vertex 20 0 40
      vertex 17.4459 4.68936 40
    endloop
  endfacet
  facet normal -0 0 1
    outer loop
      vertex 16.5169 2.70137 40
      vertex 20 0 40
      vertex 17.0975 3.6245 40
    endloop
  endfacet
  facet normal -0 0 1
    outer loop
      vertex 15.704 1.92 40
      vertex 20 0 40
      vertex 16.5169 2.70137 40
    endloop
  endfacet
  facet normal -0 0 1
    outer loop
      vertex 14.6843 1.29874 40
      vertex 20 0 40
      vertex 15.704 1.92 40
    endloop
  endfacet
  facet normal -0 0 1
    outer loop
      vertex 13.4832 0.854996 40
      vertex 20 0 40
      vertex 14.6843 1.29874 40
    endloop
  endfacet
  facet normal -0 0 1
    outer loop
      vertex 12.1008 0.588745 40
      vertex 20 0 40
      vertex 13.4832 0.854996 40
    endloop
  endfacet
  facet normal -0 0 1
    outer loop
      vertex 10.537 0.5 40
      vertex 20 0 40
      vertex 12.1008 0.588745 40
    endloop
  endfacet
  facet normal 0 0 1
    outer loop
      vertex 0 0 40
      vertex 10.537 0.5 40
      vertex 2.77899 0.5 40
    endloop
  endfacet
  facet normal 0 0 1
    outer loop
      vertex 10.537 0.5 40
      vertex 0 0 40
      vertex 20 0 40
    endloop
  endfacet
  facet normal 0 0 1
    outer loop
      vertex 0 0 40
      vertex 2.77899 0.5 40
      vertex 0 20 40
    endloop
  endfacet
  facet normal 0 0 1
    outer loop
      vertex 17.2535 7.64799 40
      vertex 16.3906 14.1809 40
      vertex 16.8679 8.40024 40
    endloop
  endfacet
  facet normal -0 0 1
    outer loop
      vertex 16.2125 13.4347 40
      vertex 16.8679 8.40024 40
      vertex 16.3906 14.1809 40
    endloop
  endfacet
  facet normal -0 0 1
    outer loop
      vertex 15.9156 12.7564 40
      vertex 16.8679 8.40024 40
      vertex 16.2125 13.4347 40
    endloop
  endfacet
  facet normal 0 0 1
    outer loop
      vertex 16.8679 8.40024 40
      vertex 15.9156 12.7564 40
      vertex 16.328 9.06999 40
    endloop
  endfacet
  facet normal -0 0 1
    outer loop
      vertex 15.5 12.146 40
      vertex 16.328 9.06999 40
      vertex 15.9156 12.7564 40
    endloop
  endfacet
  facet normal 0 0 1
    outer loop
      vertex 16.328 9.06999 40
      vertex 15.5 12.146 40
      vertex 15.6457 9.63693 40
    endloop
  endfacet
  facet normal -0 0 1
    outer loop
      vertex 14.9763 11.6169 40
      vertex 15.6457 9.63693 40
      vertex 15.5 12.146 40
    endloop
  endfacet
  facet normal 0 0 1
    outer loop
      vertex 14.9763 11.6169 40
      vertex 14.8327 10.0807 40
      vertex 15.6457 9.63693 40
    endloop
  endfacet
  facet normal -0 0 1
    outer loop
      vertex 14.3542 11.1827 40
      vertex 14.8327 10.0807 40
      vertex 14.9763 11.6169 40
    endloop
  endfacet
  facet normal 0 0 1
    outer loop
      vertex 14.3542 11.1827 40
      vertex 13.8892 10.4014 40
      vertex 14.8327 10.0807 40
    endloop
  endfacet
  facet normal -0 0 1
    outer loop
      vertex 13.6338 10.8434 40
      vertex 13.8892 10.4014 40
      vertex 14.3542 11.1827 40
    endloop
  endfacet
  facet normal 0 0 1
    outer loop
      vertex 13.8892 10.4014 40
      vertex 13.6338 10.8434 40
      vertex 12.815 10.599 40
    endloop
  endfacet
  facet normal 0 0 -1
    outer loop
      vertex 0 0 0
      vertex 20 20 0
      vertex 20 0 0
    endloop
  endfacet
  facet normal -0 0 -1
    outer loop
      vertex 20 20 0
      vertex 0 0 0
      vertex 0 20 0
    endloop
  endfacet
  facet normal -1 0 0
    outer loop
      vertex 0 0 0
      vertex 0 20 40
      vertex 0 20 0
    endloop
  endfacet
  facet normal -1 -0 0
    outer loop
      vertex 0 20 40
      vertex 0 0 0
      vertex 0 0 40
    endloop
  endfacet
  facet normal 0 1 -0
    outer loop
      vertex 20 20 0
      vertex 0 20 40
      vertex 20 20 40
    endloop
  endfacet
  facet normal 0 1 0
    outer loop
      vertex 0 20 40
      vertex 20 20 0
      vertex 0 20 0
    endloop
  endfacet
  facet normal 0 -1 0
    outer loop
      vertex 0 0 0
      vertex 20 0 40
      vertex 0 0 40
    endloop
  endfacet
  facet normal 0 -1 -0
    outer loop
      vertex 20 0 40
      vertex 0 0 0
      vertex 20 0 0
    endloop
  endfacet
  facet normal -0 0 1
    outer loop
      vertex 13.846 14.684 45
      vertex 16.3906 14.1809 45
      vertex 16.45 14.995 45
    endloop
  endfacet
  facet normal -0 0 1
    outer loop
      vertex 13.7799 15.4024 45
      vertex 16.45 14.995 45
      vertex 16.0296 17.0254 45
    endloop
  endfacet
  facet normal 0 0 1
    outer loop
      vertex 13.782 13.9286 45
      vertex 16.3906 14.1809 45
      vertex 13.846 14.684 45
    endloop
  endfacet
  facet normal 0 0 1
    outer loop
      vertex 16.3906 14.1809 45
      vertex 13.782 13.9286 45
      vertex 16.2125 13.4347 45
    endloop
  endfacet
  facet normal 0 0 1
    outer loop
      vertex 16.2125 13.4347 45
      vertex 13.782 13.9286 45
      vertex 15.9156 12.7564 45
    endloop
  endfacet
  facet normal 0 0 1
    outer loop
      vertex 13.5815 16.0105 45
      vertex 16.0296 17.0254 45
      vertex 14.7682 18.4757 45
    endloop
  endfacet
  facet normal -0 0 1
    outer loop
      vertex 13.59 13.2775 45
      vertex 15.9156 12.7564 45
      vertex 13.782 13.9286 45
    endloop
  endfacet
  facet normal 0 0 1
    outer loop
      vertex 15.9156 12.7564 45
      vertex 13.59 13.2775 45
      vertex 15.5 12.146 45
    endloop
  endfacet
  facet normal 0 0 1
    outer loop
      vertex 16.45 14.995 45
      vertex 13.7799 15.4024 45
      vertex 13.846 14.684 45
    endloop
  endfacet
  facet normal 0 0 1
    outer loop
      vertex 16.0296 17.0254 45
      vertex 13.5815 16.0105 45
      vertex 13.7799 15.4024 45
    endloop
  endfacet
  facet normal 0 0 1
    outer loop
      vertex 14.7682 18.4757 45
      vertex 13.2509 16.5084 45
      vertex 13.5815 16.0105 45
    endloop
  endfacet
  facet normal 0 0 1
    outer loop
      vertex 14.7682 18.4757 45
      vertex 12.788 16.896 45
      vertex 13.2509 16.5084 45
    endloop
  endfacet
  facet normal 0 0 1
    outer loop
      vertex 12.6661 19.3459 45
      vertex 12.788 16.896 45
      vertex 14.7682 18.4757 45
    endloop
  endfacet
  facet normal 0 0 1
    outer loop
      vertex 12.6661 19.3459 45
      vertex 12.1997 17.1869 45
      vertex 12.788 16.896 45
    endloop
  endfacet
  facet normal 0 0 1
    outer loop
      vertex 12.6661 19.3459 45
      vertex 11.4927 17.3947 45
      vertex 12.1997 17.1869 45
    endloop
  endfacet
  facet normal 0 0 1
    outer loop
      vertex 12.6661 19.3459 45
      vertex 10.6672 17.5194 45
      vertex 11.4927 17.3947 45
    endloop
  endfacet
  facet normal 0 0 1
    outer loop
      vertex 9.72299 19.636 45
      vertex 10.6672 17.5194 45
      vertex 12.6661 19.3459 45
    endloop
  endfacet
  facet normal 0 0 1
    outer loop
      vertex 9.72299 19.636 45
      vertex 9.72299 17.561 45
      vertex 10.6672 17.5194 45
    endloop
  endfacet
  facet normal 0 0 1
    outer loop
      vertex 9.72299 19.636 45
      vertex 5.36899 17.561 45
      vertex 9.72299 17.561 45
    endloop
  endfacet
  facet normal 0 0 1
    outer loop
      vertex 2.77899 19.636 45
      vertex 5.36899 11.508 45
      vertex 5.36899 17.561 45
    endloop
  endfacet
  facet normal 0 0 1
    outer loop
      vertex 5.36899 11.508 45
      vertex 2.77899 19.636 45
      vertex 5.36899 9.487 45
    endloop
  endfacet
  facet normal 0 0 1
    outer loop
      vertex 2.77899 0.5 45
      vertex 5.36899 9.487 45
      vertex 2.77899 19.636 45
    endloop
  endfacet
  facet normal -0 0 1
    outer loop
      vertex 2.77899 19.636 45
      vertex 5.36899 17.561 45
      vertex 9.72299 19.636 45
    endloop
  endfacet
  facet normal 0 0 1
    outer loop
      vertex 15.5 12.146 45
      vertex 13.59 13.2775 45
      vertex 14.9763 11.6169 45
    endloop
  endfacet
  facet normal -0 0 1
    outer loop
      vertex 13.27 12.7306 45
      vertex 14.9763 11.6169 45
      vertex 13.59 13.2775 45
    endloop
  endfacet
  facet normal 0 0 1
    outer loop
      vertex 14.9763 11.6169 45
      vertex 13.27 12.7306 45
      vertex 14.3542 11.1827 45
    endloop
  endfacet
  facet normal -0 0 1
    outer loop
      vertex 12.822 12.288 45
      vertex 14.3542 11.1827 45
      vertex 13.27 12.7306 45
    endloop
  endfacet
  facet normal 0 0 1
    outer loop
      vertex 14.3542 11.1827 45
      vertex 12.822 12.288 45
      vertex 13.6338 10.8434 45
    endloop
  endfacet
  facet normal 0 0 1
    outer loop
      vertex 12.822 12.288 45
      vertex 12.815 10.599 45
      vertex 13.6338 10.8434 45
    endloop
  endfacet
  facet normal -0 0 1
    outer loop
      vertex 12.2443 11.9467 45
      vertex 12.815 10.599 45
      vertex 12.822 12.288 45
    endloop
  endfacet
  facet normal -0 0 1
    outer loop
      vertex 11.5352 11.703 45
      vertex 12.815 10.599 45
      vertex 12.2443 11.9467 45
    endloop
  endfacet
  facet normal 0 0 1
    outer loop
      vertex 12.815 10.599 45
      vertex 11.5352 11.703 45
      vertex 12.2738 9.27524 45
    endloop
  endfacet
  facet normal -0 0 1
    outer loop
      vertex 10.6948 11.5567 45
      vertex 12.2738 9.27524 45
      vertex 11.5352 11.703 45
    endloop
  endfacet
  facet normal 0 0 1
    outer loop
      vertex 10.6948 11.5567 45
      vertex 10.197 9.487 45
      vertex 12.2738 9.27524 45
    endloop
  endfacet
  facet normal -0 0 1
    outer loop
      vertex 9.72299 11.508 45
      vertex 10.197 9.487 45
      vertex 10.6948 11.5567 45
    endloop
  endfacet
  facet normal 0 0 1
    outer loop
      vertex 5.36899 9.487 45
      vertex 9.72299 11.508 45
      vertex 5.36899 11.508 45
    endloop
  endfacet
  facet normal 0 0 1
    outer loop
      vertex 9.72299 11.508 45
      vertex 5.36899 9.487 45
      vertex 10.197 9.487 45
    endloop
  endfacet
  facet normal 0 0 1
    outer loop
      vertex 13.7572 8.64 45
      vertex 15.6457 9.63693 45
      vertex 14.8327 10.0807 45
    endloop
  endfacet
  facet normal 0 0 1
    outer loop
      vertex 15.6457 9.63693 45
      vertex 14.6473 7.58124 45
      vertex 14.944 6.099 45
    endloop
  endfacet
  facet normal 0 0 1
    outer loop
      vertex 13.7572 8.64 45
      vertex 14.8327 10.0807 45
      vertex 13.8892 10.4014 45
    endloop
  endfacet
  facet normal 0 0 1
    outer loop
      vertex 15.6457 9.63693 45
      vertex 13.7572 8.64 45
      vertex 14.6473 7.58124 45
    endloop
  endfacet
  facet normal 0 0 1
    outer loop
      vertex 12.2738 9.27524 45
      vertex 13.8892 10.4014 45
      vertex 12.815 10.599 45
    endloop
  endfacet
  facet normal 0 0 1
    outer loop
      vertex 13.8892 10.4014 45
      vertex 12.2738 9.27524 45
      vertex 13.7572 8.64 45
    endloop
  endfacet
  facet normal -0 0 1
    outer loop
      vertex 14.944 6.099 45
      vertex 17.562 5.896 45
      vertex 17.4849 6.81325 45
    endloop
  endfacet
  facet normal 0 0 1
    outer loop
      vertex 14.944 6.099 45
      vertex 17.4849 6.81325 45
      vertex 17.2535 7.64799 45
    endloop
  endfacet
  facet normal 0 0 1
    outer loop
      vertex 14.8762 5.27586 45
      vertex 17.562 5.896 45
      vertex 14.944 6.099 45
    endloop
  endfacet
  facet normal 0 0 1
    outer loop
      vertex 14.944 6.099 45
      vertex 17.2535 7.64799 45
      vertex 16.8679 8.40024 45
    endloop
  endfacet
  facet normal 0 0 1
    outer loop
      vertex 17.562 5.896 45
      vertex 14.8762 5.27586 45
      vertex 17.4459 4.68936 45
    endloop
  endfacet
  facet normal 0 0 1
    outer loop
      vertex 14.944 6.099 45
      vertex 16.8679 8.40024 45
      vertex 16.328 9.06999 45
    endloop
  endfacet
  facet normal 0 0 1
    outer loop
      vertex 17.4459 4.68936 45
      vertex 14.8762 5.27586 45
      vertex 17.0975 3.6245 45
    endloop
  endfacet
  facet normal 0 0 1
    outer loop
      vertex 14.944 6.099 45
      vertex 16.328 9.06999 45
      vertex 15.6457 9.63693 45
    endloop
  endfacet
  facet normal -0 0 1
    outer loop
      vertex 14.6727 4.56149 45
      vertex 17.0975 3.6245 45
      vertex 14.8762 5.27586 45
    endloop
  endfacet
  facet normal 0 0 1
    outer loop
      vertex 17.0975 3.6245 45
      vertex 14.6727 4.56149 45
      vertex 16.5169 2.70137 45
    endloop
  endfacet
  facet normal -0 0 1
    outer loop
      vertex 14.3337 3.95587 45
      vertex 16.5169 2.70137 45
      vertex 14.6727 4.56149 45
    endloop
  endfacet
  facet normal 0 0 1
    outer loop
      vertex 16.5169 2.70137 45
      vertex 14.3337 3.95587 45
      vertex 15.704 1.92 45
    endloop
  endfacet
  facet normal -0 0 1
    outer loop
      vertex 13.859 3.459 45
      vertex 15.704 1.92 45
      vertex 14.3337 3.95587 45
    endloop
  endfacet
  facet normal 0 0 1
    outer loop
      vertex 15.704 1.92 45
      vertex 13.859 3.459 45
      vertex 14.6843 1.29874 45
    endloop
  endfacet
  facet normal -0 0 1
    outer loop
      vertex 13.236 3.07224 45
      vertex 14.6843 1.29874 45
      vertex 13.859 3.459 45
    endloop
  endfacet
  facet normal 0 0 1
    outer loop
      vertex 14.6843 1.29874 45
      vertex 13.236 3.07224 45
      vertex 13.4832 0.854996 45
    endloop
  endfacet
  facet normal -0 0 1
    outer loop
      vertex 12.452 2.79599 45
      vertex 13.4832 0.854996 45
      vertex 13.236 3.07224 45
    endloop
  endfacet
  facet normal 0 0 1
    outer loop
      vertex 12.452 2.79599 45
      vertex 12.1008 0.588745 45
      vertex 13.4832 0.854996 45
    endloop
  endfacet
  facet normal -0 0 1
    outer loop
      vertex 11.507 2.63025 45
      vertex 12.1008 0.588745 45
      vertex 12.452 2.79599 45
    endloop
  endfacet
  facet normal 0 0 1
    outer loop
      vertex 11.507 2.63025 45
      vertex 10.537 0.5 45
      vertex 12.1008 0.588745 45
    endloop
  endfacet
  facet normal -0 0 1
    outer loop
      vertex 10.401 2.575 45
      vertex 10.537 0.5 45
      vertex 11.507 2.63025 45
    endloop
  endfacet
  facet normal -0 0 1
    outer loop
      vertex 5.36899 2.575 45
      vertex 10.537 0.5 45
      vertex 10.401 2.575 45
    endloop
  endfacet
  facet normal 0 0 1
    outer loop
      vertex 5.36899 2.575 45
      vertex 2.77899 0.5 45
      vertex 10.537 0.5 45
    endloop
  endfacet
  facet normal 0 0 1
    outer loop
      vertex 5.36899 9.487 45
      vertex 2.77899 0.5 45
      vertex 5.36899 2.575 45
    endloop
  endfacet
  facet normal 0.189125 -0.981953 0
    outer loop
      vertex 12.1008 0.588745 40
      vertex 13.4832 0.854996 45
      vertex 12.1008 0.588745 45
    endloop
  endfacet
  facet normal 0.189125 -0.981953 0
    outer loop
      vertex 13.4832 0.854996 45
      vertex 12.1008 0.588745 40
      vertex 13.4832 0.854996 40
    endloop
  endfacet
  facet normal 0.346553 -0.93803 0
    outer loop
      vertex 13.4832 0.854996 40
      vertex 14.6843 1.29874 45
      vertex 13.4832 0.854996 45
    endloop
  endfacet
  facet normal 0.346553 -0.93803 0
    outer loop
      vertex 14.6843 1.29874 45
      vertex 13.4832 0.854996 40
      vertex 14.6843 1.29874 40
    endloop
  endfacet
  facet normal 0.520297 -0.853985 0
    outer loop
      vertex 14.6843 1.29874 40
      vertex 15.704 1.92 45
      vertex 14.6843 1.29874 45
    endloop
  endfacet
  facet normal 0.520297 -0.853985 0
    outer loop
      vertex 15.704 1.92 45
      vertex 14.6843 1.29874 40
      vertex 15.704 1.92 40
    endloop
  endfacet
  facet normal 0.692987 -0.72095 0
    outer loop
      vertex 15.704 1.92 40
      vertex 16.5169 2.70137 45
      vertex 15.704 1.92 45
    endloop
  endfacet
  facet normal 0.692987 -0.72095 0
    outer loop
      vertex 16.5169 2.70137 45
      vertex 15.704 1.92 40
      vertex 16.5169 2.70137 40
    endloop
  endfacet
  facet normal 0.846493 -0.5324 6.6189e-18
    outer loop
      vertex 16.5169 2.70137 45
      vertex 17.0975 3.6245 40
      vertex 17.0975 3.6245 45
    endloop
  endfacet
  facet normal 0.846493 -0.5324 6.6189e-18
    outer loop
      vertex 17.0975 3.6245 40
      vertex 16.5169 2.70137 45
      vertex 16.5169 2.70137 40
    endloop
  endfacet
  facet normal 0.950423 -0.310959 -1.32477e-18
    outer loop
      vertex 17.0975 3.6245 45
      vertex 17.4459 4.68936 40
      vertex 17.4459 4.68936 45
    endloop
  endfacet
  facet normal 0.950423 -0.310959 -1.32477e-18
    outer loop
      vertex 17.4459 4.68936 40
      vertex 17.0975 3.6245 45
      vertex 17.0975 3.6245 40
    endloop
  endfacet
  facet normal 0.995403 -0.0957753 5.38954e-19
    outer loop
      vertex 17.4459 4.68936 45
      vertex 17.562 5.896 40
      vertex 17.562 5.896 45
    endloop
  endfacet
  facet normal 0.995403 -0.0957753 5.38954e-19
    outer loop
      vertex 17.562 5.896 40
      vertex 17.4459 4.68936 45
      vertex 17.4459 4.68936 40
    endloop
  endfacet
  facet normal 0.996486 0.0837602 1.37777e-18
    outer loop
      vertex 17.562 5.896 45
      vertex 17.4849 6.81325 40
      vertex 17.4849 6.81325 45
    endloop
  endfacet
  facet normal 0.996486 0.0837602 1.37777e-18
    outer loop
      vertex 17.4849 6.81325 40
      vertex 17.562 5.896 45
      vertex 17.562 5.896 40
    endloop
  endfacet
  facet normal 0.963658 0.267138 1.03882e-18
    outer loop
      vertex 17.4849 6.81325 45
      vertex 17.2535 7.64799 40
      vertex 17.2535 7.64799 45
    endloop
  endfacet
  facet normal 0.963658 0.267138 1.03882e-18
    outer loop
      vertex 17.2535 7.64799 40
      vertex 17.4849 6.81325 45
      vertex 17.4849 6.81325 40
    endloop
  endfacet
  facet normal 0.889899 0.456158 -2.21017e-18
    outer loop
      vertex 17.2535 7.64799 45
      vertex 16.8679 8.40024 40
      vertex 16.8679 8.40024 45
    endloop
  endfacet
  facet normal 0.889899 0.456158 -2.21017e-18
    outer loop
      vertex 16.8679 8.40024 40
      vertex 17.2535 7.64799 45
      vertex 17.2535 7.64799 40
    endloop
  endfacet
  facet normal 0.778539 0.627597 4.03018e-18
    outer loop
      vertex 16.8679 8.40024 45
      vertex 16.328 9.06999 40
      vertex 16.328 9.06999 45
    endloop
  endfacet
  facet normal 0.778539 0.627597 4.03018e-18
    outer loop
      vertex 16.328 9.06999 40
      vertex 16.8679 8.40024 45
      vertex 16.8679 8.40024 40
    endloop
  endfacet
  facet normal 0.63909 0.769132 -0
    outer loop
      vertex 16.328 9.06999 40
      vertex 15.6457 9.63693 45
      vertex 16.328 9.06999 45
    endloop
  endfacet
  facet normal 0.63909 0.769132 0
    outer loop
      vertex 15.6457 9.63693 45
      vertex 16.328 9.06999 40
      vertex 15.6457 9.63693 40
    endloop
  endfacet
  facet normal 0.479115 0.877752 -0
    outer loop
      vertex 15.6457 9.63693 40
      vertex 14.8327 10.0807 45
      vertex 15.6457 9.63693 45
    endloop
  endfacet
  facet normal 0.479115 0.877752 0
    outer loop
      vertex 14.8327 10.0807 45
      vertex 15.6457 9.63693 40
      vertex 14.8327 10.0807 40
    endloop
  endfacet
  facet normal 0.321822 0.9468 -0
    outer loop
      vertex 14.8327 10.0807 40
      vertex 13.8892 10.4014 45
      vertex 14.8327 10.0807 45
    endloop
  endfacet
  facet normal 0.321822 0.9468 0
    outer loop
      vertex 13.8892 10.4014 45
      vertex 14.8327 10.0807 40
      vertex 13.8892 10.4014 40
    endloop
  endfacet
  facet normal 0.180915 0.983499 -0
    outer loop
      vertex 13.8892 10.4014 40
      vertex 12.815 10.599 45
      vertex 13.8892 10.4014 45
    endloop
  endfacet
  facet normal 0.180915 0.983499 0
    outer loop
      vertex 12.815 10.599 45
      vertex 13.8892 10.4014 40
      vertex 12.815 10.599 40
    endloop
  endfacet
  facet normal 0.286016 -0.958225 0
    outer loop
      vertex 12.815 10.599 40
      vertex 13.6338 10.8434 45
      vertex 12.815 10.599 45
    endloop
  endfacet
  facet normal 0.286016 -0.958225 0
    outer loop
      vertex 13.6338 10.8434 45
      vertex 12.815 10.599 40
      vertex 13.6338 10.8434 40
    endloop
  endfacet
  facet normal 0.426093 -0.904679 0
    outer loop
      vertex 13.6338 10.8434 40
      vertex 14.3542 11.1827 45
      vertex 13.6338 10.8434 45
    endloop
  endfacet
  facet normal 0.426093 -0.904679 0
    outer loop
      vertex 14.3542 11.1827 45
      vertex 13.6338 10.8434 40
      vertex 14.3542 11.1827 40
    endloop
  endfacet
  facet normal 0.572338 -0.820018 0
    outer loop
      vertex 14.3542 11.1827 40
      vertex 14.9763 11.6169 45
      vertex 14.3542 11.1827 45
    endloop
  endfacet
  facet normal 0.572338 -0.820018 0
    outer loop
      vertex 14.9763 11.6169 45
      vertex 14.3542 11.1827 40
      vertex 14.9763 11.6169 40
    endloop
  endfacet
  facet normal 0.710724 -0.703471 -3.80368e-19
    outer loop
      vertex 14.9763 11.6169 45
      vertex 15.5 12.146 40
      vertex 15.5 12.146 45
    endloop
  endfacet
  facet normal 0.710724 -0.703471 -3.80368e-19
    outer loop
      vertex 15.5 12.146 40
      vertex 14.9763 11.6169 45
      vertex 14.9763 11.6169 40
    endloop
  endfacet
  facet normal 0.826594 -0.562799 7.3133e-18
    outer loop
      vertex 15.5 12.146 45
      vertex 15.9156 12.7564 40
      vertex 15.9156 12.7564 45
    endloop
  endfacet
  facet normal 0.826594 -0.562799 7.3133e-18
    outer loop
      vertex 15.9156 12.7564 40
      vertex 15.5 12.146 45
      vertex 15.5 12.146 40
    endloop
  endfacet
  facet normal 0.916086 -0.400982 -3.59017e-19
    outer loop
      vertex 15.9156 12.7564 45
      vertex 16.2125 13.4347 40
      vertex 16.2125 13.4347 45
    endloop
  endfacet
  facet normal 0.916086 -0.400982 -3.59017e-19
    outer loop
      vertex 16.2125 13.4347 40
      vertex 15.9156 12.7564 45
      vertex 15.9156 12.7564 40
    endloop
  endfacet
  facet normal 0.972679 -0.232155 2.3203e-18
    outer loop
      vertex 16.2125 13.4347 45
      vertex 16.3906 14.1809 40
      vertex 16.3906 14.1809 45
    endloop
  endfacet
  facet normal 0.972679 -0.232155 2.3203e-18
    outer loop
      vertex 16.3906 14.1809 40
      vertex 16.2125 13.4347 45
      vertex 16.2125 13.4347 40
    endloop
  endfacet
  facet normal 0.997349 -0.0727706 -2.36109e-19
    outer loop
      vertex 16.3906 14.1809 45
      vertex 16.45 14.995 40
      vertex 16.45 14.995 45
    endloop
  endfacet
  facet normal 0.997349 -0.0727706 -2.36109e-19
    outer loop
      vertex 16.45 14.995 40
      vertex 16.3906 14.1809 45
      vertex 16.3906 14.1809 40
    endloop
  endfacet
  facet normal 0.97923 0.202752 -3.74041e-18
    outer loop
      vertex 16.45 14.995 45
      vertex 16.0296 17.0254 40
      vertex 16.0296 17.0254 45
    endloop
  endfacet
  facet normal 0.97923 0.202752 -3.74041e-18
    outer loop
      vertex 16.0296 17.0254 40
      vertex 16.45 14.995 45
      vertex 16.45 14.995 40
    endloop
  endfacet
  facet normal 0.754536 0.656259 6.18216e-18
    outer loop
      vertex 16.0296 17.0254 45
      vertex 14.7682 18.4757 40
      vertex 14.7682 18.4757 45
    endloop
  endfacet
  facet normal 0.754536 0.656259 6.18216e-18
    outer loop
      vertex 14.7682 18.4757 40
      vertex 16.0296 17.0254 45
      vertex 16.0296 17.0254 40
    endloop
  endfacet
  facet normal 0.382489 0.92396 -0
    outer loop
      vertex 14.7682 18.4757 40
      vertex 12.6661 19.3459 45
      vertex 14.7682 18.4757 45
    endloop
  endfacet
  facet normal 0.382489 0.92396 0
    outer loop
      vertex 12.6661 19.3459 45
      vertex 14.7682 18.4757 40
      vertex 12.6661 19.3459 40
    endloop
  endfacet
  facet normal 0.0980938 0.995177 -0
    outer loop
      vertex 12.6661 19.3459 40
      vertex 9.72299 19.636 45
      vertex 12.6661 19.3459 45
    endloop
  endfacet
  facet normal 0.0980938 0.995177 0
    outer loop
      vertex 9.72299 19.636 45
      vertex 12.6661 19.3459 40
      vertex 9.72299 19.636 40
    endloop
  endfacet
  facet normal 0 1 -0
    outer loop
      vertex 9.72299 19.636 40
      vertex 2.77899 19.636 45
      vertex 9.72299 19.636 45
    endloop
  endfacet
  facet normal 0 1 0
    outer loop
      vertex 2.77899 19.636 45
      vertex 9.72299 19.636 40
      vertex 2.77899 19.636 40
    endloop
  endfacet
  facet normal -1 0 0
    outer loop
      vertex 2.77899 0.5 40
      vertex 2.77899 19.636 45
      vertex 2.77899 19.636 40
    endloop
  endfacet
  facet normal -1 -0 0
    outer loop
      vertex 2.77899 19.636 45
      vertex 2.77899 0.5 40
      vertex 2.77899 0.5 45
    endloop
  endfacet
  facet normal 0 -1 0
    outer loop
      vertex 2.77899 0.5 40
      vertex 10.537 0.5 45
      vertex 2.77899 0.5 45
    endloop
  endfacet
  facet normal 0 -1 -0
    outer loop
      vertex 10.537 0.5 45
      vertex 2.77899 0.5 40
      vertex 10.537 0.5 40
    endloop
  endfacet
  facet normal 0.0566584 -0.998394 0
    outer loop
      vertex 10.537 0.5 40
      vertex 12.1008 0.588745 45
      vertex 10.537 0.5 45
    endloop
  endfacet
  facet normal 0.0566584 -0.998394 0
    outer loop
      vertex 12.1008 0.588745 45
      vertex 10.537 0.5 40
      vertex 12.1008 0.588745 40
    endloop
  endfacet
  facet normal 1 -0 0
    outer loop
      vertex 5.36899 11.508 45
      vertex 5.36899 17.561 40
      vertex 5.36899 17.561 45
    endloop
  endfacet
  facet normal 1 0 0
    outer loop
      vertex 5.36899 17.561 40
      vertex 5.36899 11.508 45
      vertex 5.36899 11.508 40
    endloop
  endfacet
  facet normal 0 -1 0
    outer loop
      vertex 5.36899 17.561 40
      vertex 9.72299 17.561 45
      vertex 5.36899 17.561 45
    endloop
  endfacet
  facet normal 0 -1 -0
    outer loop
      vertex 9.72299 17.561 45
      vertex 5.36899 17.561 40
      vertex 9.72299 17.561 40
    endloop
  endfacet
  facet normal -0.0440153 -0.999031 0
    outer loop
      vertex 9.72299 17.561 40
      vertex 10.6672 17.5194 45
      vertex 9.72299 17.561 45
    endloop
  endfacet
  facet normal -0.0440153 -0.999031 -0
    outer loop
      vertex 10.6672 17.5194 45
      vertex 9.72299 17.561 40
      vertex 10.6672 17.5194 40
    endloop
  endfacet
  facet normal -0.149365 -0.988782 0
    outer loop
      vertex 10.6672 17.5194 40
      vertex 11.4927 17.3947 45
      vertex 10.6672 17.5194 45
    endloop
  endfacet
  facet normal -0.149365 -0.988782 -0
    outer loop
      vertex 11.4927 17.3947 45
      vertex 10.6672 17.5194 40
      vertex 11.4927 17.3947 40
    endloop
  endfacet
  facet normal -0.28199 -0.959417 0
    outer loop
      vertex 11.4927 17.3947 40
      vertex 12.1997 17.1869 45
      vertex 11.4927 17.3947 45
    endloop
  endfacet
  facet normal -0.28199 -0.959417 -0
    outer loop
      vertex 12.1997 17.1869 45
      vertex 11.4927 17.3947 40
      vertex 12.1997 17.1869 40
    endloop
  endfacet
  facet normal -0.443248 -0.896399 0
    outer loop
      vertex 12.1997 17.1869 40
      vertex 12.788 16.896 45
      vertex 12.1997 17.1869 45
    endloop
  endfacet
  facet normal -0.443248 -0.896399 -0
    outer loop
      vertex 12.788 16.896 45
      vertex 12.1997 17.1869 40
      vertex 12.788 16.896 40
    endloop
  endfacet
  facet normal -0.641991 -0.766712 0
    outer loop
      vertex 12.788 16.896 40
      vertex 13.2509 16.5084 45
      vertex 12.788 16.896 45
    endloop
  endfacet
  facet normal -0.641991 -0.766712 -0
    outer loop
      vertex 13.2509 16.5084 45
      vertex 12.788 16.896 40
      vertex 13.2509 16.5084 40
    endloop
  endfacet
  facet normal -0.833079 -0.553155 -1.89696e-19
    outer loop
      vertex 13.5815 16.0105 40
      vertex 13.2509 16.5084 45
      vertex 13.2509 16.5084 40
    endloop
  endfacet
  facet normal -0.833079 -0.553155 -1.89696e-19
    outer loop
      vertex 13.2509 16.5084 45
      vertex 13.5815 16.0105 40
      vertex 13.5815 16.0105 45
    endloop
  endfacet
  facet normal -0.950681 -0.310171 -8.10088e-19
    outer loop
      vertex 13.7799 15.4024 40
      vertex 13.5815 16.0105 45
      vertex 13.5815 16.0105 40
    endloop
  endfacet
  facet normal -0.950681 -0.310171 -8.10088e-19
    outer loop
      vertex 13.5815 16.0105 45
      vertex 13.7799 15.4024 40
      vertex 13.7799 15.4024 45
    endloop
  endfacet
  facet normal -0.995794 -0.091623 3.46257e-19
    outer loop
      vertex 13.846 14.684 40
      vertex 13.7799 15.4024 45
      vertex 13.7799 15.4024 40
    endloop
  endfacet
  facet normal -0.995794 -0.091623 3.46257e-19
    outer loop
      vertex 13.7799 15.4024 45
      vertex 13.846 14.684 40
      vertex 13.846 14.684 45
    endloop
  endfacet
  facet normal -0.99643 0.0844209 8.13214e-19
    outer loop
      vertex 13.782 13.9286 40
      vertex 13.846 14.684 45
      vertex 13.846 14.684 40
    endloop
  endfacet
  facet normal -0.99643 0.0844209 8.13214e-19
    outer loop
      vertex 13.846 14.684 45
      vertex 13.782 13.9286 40
      vertex 13.782 13.9286 45
    endloop
  endfacet
  facet normal -0.959166 0.282844 3.33939e-18
    outer loop
      vertex 13.59 13.2775 40
      vertex 13.782 13.9286 45
      vertex 13.782 13.9286 40
    endloop
  endfacet
  facet normal -0.959166 0.282844 3.33939e-18
    outer loop
      vertex 13.782 13.9286 45
      vertex 13.59 13.2775 40
      vertex 13.59 13.2775 45
    endloop
  endfacet
  facet normal -0.863108 0.505019 -1.74989e-18
    outer loop
      vertex 13.27 12.7306 40
      vertex 13.59 13.2775 45
      vertex 13.59 13.2775 40
    endloop
  endfacet
  facet normal -0.863108 0.505019 -1.74989e-18
    outer loop
      vertex 13.59 13.2775 45
      vertex 13.27 12.7306 40
      vertex 13.27 12.7306 45
    endloop
  endfacet
  facet normal -0.702806 0.711381 0
    outer loop
      vertex 13.27 12.7306 40
      vertex 12.822 12.288 45
      vertex 13.27 12.7306 45
    endloop
  endfacet
  facet normal -0.702806 0.711381 0
    outer loop
      vertex 12.822 12.288 45
      vertex 13.27 12.7306 40
      vertex 12.822 12.288 40
    endloop
  endfacet
  facet normal -0.508654 0.860971 0
    outer loop
      vertex 12.822 12.288 40
      vertex 12.2443 11.9467 45
      vertex 12.822 12.288 45
    endloop
  endfacet
  facet normal -0.508654 0.860971 0
    outer loop
      vertex 12.2443 11.9467 45
      vertex 12.822 12.288 40
      vertex 12.2443 11.9467 40
    endloop
  endfacet
  facet normal -0.325016 0.945708 0
    outer loop
      vertex 12.2443 11.9467 40
      vertex 11.5352 11.703 45
      vertex 12.2443 11.9467 45
    endloop
  endfacet
  facet normal -0.325016 0.945708 0
    outer loop
      vertex 11.5352 11.703 45
      vertex 12.2443 11.9467 40
      vertex 11.5352 11.703 40
    endloop
  endfacet
  facet normal -0.171504 0.985183 0
    outer loop
      vertex 11.5352 11.703 40
      vertex 10.6948 11.5567 45
      vertex 11.5352 11.703 45
    endloop
  endfacet
  facet normal -0.171504 0.985183 0
    outer loop
      vertex 10.6948 11.5567 45
      vertex 11.5352 11.703 40
      vertex 10.6948 11.5567 40
    endloop
  endfacet
  facet normal -0.0500499 0.998747 0
    outer loop
      vertex 10.6948 11.5567 40
      vertex 9.72299 11.508 45
      vertex 10.6948 11.5567 45
    endloop
  endfacet
  facet normal -0.0500499 0.998747 0
    outer loop
      vertex 9.72299 11.508 45
      vertex 10.6948 11.5567 40
      vertex 9.72299 11.508 40
    endloop
  endfacet
  facet normal 0 1 -0
    outer loop
      vertex 9.72299 11.508 40
      vertex 5.36899 11.508 45
      vertex 9.72299 11.508 45
    endloop
  endfacet
  facet normal 0 1 0
    outer loop
      vertex 5.36899 11.508 45
      vertex 9.72299 11.508 40
      vertex 5.36899 11.508 40
    endloop
  endfacet
  facet normal 1 -0 0
    outer loop
      vertex 5.36899 2.575 45
      vertex 5.36899 9.487 40
      vertex 5.36899 9.487 45
    endloop
  endfacet
  facet normal 1 0 0
    outer loop
      vertex 5.36899 9.487 40
      vertex 5.36899 2.575 45
      vertex 5.36899 2.575 40
    endloop
  endfacet
  facet normal 0 -1 0
    outer loop
      vertex 5.36899 9.487 40
      vertex 10.197 9.487 45
      vertex 5.36899 9.487 45
    endloop
  endfacet
  facet normal 0 -1 -0
    outer loop
      vertex 10.197 9.487 45
      vertex 5.36899 9.487 40
      vertex 10.197 9.487 40
    endloop
  endfacet
  facet normal -0.101439 -0.994842 0
    outer loop
      vertex 10.197 9.487 40
      vertex 12.2738 9.27524 45
      vertex 10.197 9.487 45
    endloop
  endfacet
  facet normal -0.101439 -0.994842 -0
    outer loop
      vertex 12.2738 9.27524 45
      vertex 10.197 9.487 40
      vertex 12.2738 9.27524 40
    endloop
  endfacet
  facet normal -0.393656 -0.919258 0
    outer loop
      vertex 12.2738 9.27524 40
      vertex 13.7572 8.64 45
      vertex 12.2738 9.27524 45
    endloop
  endfacet
  facet normal -0.393656 -0.919258 -0
    outer loop
      vertex 13.7572 8.64 45
      vertex 12.2738 9.27524 40
      vertex 13.7572 8.64 40
    endloop
  endfacet
  facet normal -0.765441 -0.643506 3.27637e-18
    outer loop
      vertex 14.6473 7.58124 40
      vertex 13.7572 8.64 45
      vertex 13.7572 8.64 40
    endloop
  endfacet
  facet normal -0.765441 -0.643506 3.27637e-18
    outer loop
      vertex 13.7572 8.64 45
      vertex 14.6473 7.58124 40
      vertex 14.6473 7.58124 45
    endloop
  endfacet
  facet normal -0.980549 -0.196276 -2.24266e-18
    outer loop
      vertex 14.944 6.099 40
      vertex 14.6473 7.58124 45
      vertex 14.6473 7.58124 40
    endloop
  endfacet
  facet normal -0.980549 -0.196276 -2.24266e-18
    outer loop
      vertex 14.6473 7.58124 45
      vertex 14.944 6.099 40
      vertex 14.944 6.099 45
    endloop
  endfacet
  facet normal -0.996625 0.0820895 1.96232e-19
    outer loop
      vertex 14.8762 5.27586 40
      vertex 14.944 6.099 45
      vertex 14.944 6.099 40
    endloop
  endfacet
  facet normal -0.996625 0.0820895 1.96232e-19
    outer loop
      vertex 14.944 6.099 45
      vertex 14.8762 5.27586 40
      vertex 14.8762 5.27586 45
    endloop
  endfacet
  facet normal -0.961739 0.273967 -1.15271e-18
    outer loop
      vertex 14.6727 4.56149 40
      vertex 14.8762 5.27586 45
      vertex 14.8762 5.27586 40
    endloop
  endfacet
  facet normal -0.961739 0.273967 -1.15271e-18
    outer loop
      vertex 14.8762 5.27586 45
      vertex 14.6727 4.56149 40
      vertex 14.6727 4.56149 45
    endloop
  endfacet
  facet normal -0.872596 0.488442 3.4572e-18
    outer loop
      vertex 14.3337 3.95587 40
      vertex 14.6727 4.56149 45
      vertex 14.6727 4.56149 40
    endloop
  endfacet
  facet normal -0.872596 0.488442 3.4572e-18
    outer loop
      vertex 14.6727 4.56149 45
      vertex 14.3337 3.95587 40
      vertex 14.3337 3.95587 45
    endloop
  endfacet
  facet normal -0.723054 0.690792 -1.86427e-18
    outer loop
      vertex 13.859 3.459 40
      vertex 14.3337 3.95587 45
      vertex 14.3337 3.95587 40
    endloop
  endfacet
  facet normal -0.723054 0.690792 -1.86427e-18
    outer loop
      vertex 14.3337 3.95587 45
      vertex 13.859 3.459 40
      vertex 13.859 3.459 45
    endloop
  endfacet
  facet normal -0.527432 0.849597 0
    outer loop
      vertex 13.859 3.459 40
      vertex 13.236 3.07224 45
      vertex 13.859 3.459 45
    endloop
  endfacet
  facet normal -0.527432 0.849597 0
    outer loop
      vertex 13.236 3.07224 45
      vertex 13.859 3.459 40
      vertex 13.236 3.07224 40
    endloop
  endfacet
  facet normal -0.332332 0.943162 0
    outer loop
      vertex 13.236 3.07224 40
      vertex 12.452 2.79599 45
      vertex 13.236 3.07224 45
    endloop
  endfacet
  facet normal -0.332332 0.943162 0
    outer loop
      vertex 12.452 2.79599 45
      vertex 13.236 3.07224 40
      vertex 12.452 2.79599 40
    endloop
  endfacet
  facet normal -0.172749 0.984966 0
    outer loop
      vertex 12.452 2.79599 40
      vertex 11.507 2.63025 45
      vertex 12.452 2.79599 45
    endloop
  endfacet
  facet normal -0.172749 0.984966 0
    outer loop
      vertex 11.507 2.63025 45
      vertex 12.452 2.79599 40
      vertex 11.507 2.63025 40
    endloop
  endfacet
  facet normal -0.0498926 0.998755 0
    outer loop
      vertex 11.507 2.63025 40
      vertex 10.401 2.575 45
      vertex 11.507 2.63025 45
    endloop
  endfacet
  facet normal -0.0498926 0.998755 0
    outer loop
      vertex 10.401 2.575 45
      vertex 11.507 2.63025 40
      vertex 10.401 2.575 40
    endloop
  endfacet
  facet normal 0 1 -0
    outer loop
      vertex 10.401 2.575 40
      vertex 5.36899 2.575 45
      vertex 10.401 2.575 45
    endloop
  endfacet
  facet normal 0 1 0
    outer loop
      vertex 5.36899 2.575 45
      vertex 10.401 2.575 40
      vertex 5.36899 2.575 40
    endloop
  endfacet
endsolid OpenSCAD_Model
