solid OpenSCAD_Model
  facet normal 1 -0 0
    outer loop
      vertex 20 0 40
      vertex 20 20 0
      vertex 20 20 40
    endloop
  endfacet
  facet normal 1 0 0
    outer loop
      vertex 20 20 0
      vertex 20 0 40
      vertex 20 0 0
    endloop
  endfacet
  facet normal 0 0 1
    outer loop
      vertex 20 20 40
      vertex 16.525 2.616 40
      vertex 20 0 40
    endloop
  endfacet
  facet normal 0 0 1
    outer loop
      vertex 20 20 40
      vertex 6.86899 19.636 40
      vertex 16.525 2.616 40
    endloop
  endfacet
  facet normal -0 0 1
    outer loop
      vertex 0 20 40
      vertex 6.86899 19.636 40
      vertex 20 20 40
    endloop
  endfacet
  facet normal 0 0 1
    outer loop
      vertex 4.27899 19.636 40
      vertex 0 20 40
      vertex 4.27899 0.5 40
    endloop
  endfacet
  facet normal 0 0 1
    outer loop
      vertex 6.86899 19.636 40
      vertex 0 20 40
      vertex 4.27899 19.636 40
    endloop
  endfacet
  facet normal -0 0 1
    outer loop
      vertex 16.525 0.5 40
      vertex 20 0 40
      vertex 16.525 2.616 40
    endloop
  endfacet
  facet normal -0 0 1
    outer loop
      vertex 4.27899 0.5 40
      vertex 20 0 40
      vertex 16.525 0.5 40
    endloop
  endfacet
  facet normal 0 0 1
    outer loop
      vertex 4.27899 0.5 40
      vertex 0 0 40
      vertex 20 0 40
    endloop
  endfacet
  facet normal 0 0 1
    outer loop
      vertex 0 0 40
      vertex 4.27899 0.5 40
      vertex 0 20 40
    endloop
  endfacet
  facet normal 0 0 1
    outer loop
      vertex 16.525 2.616 40
      vertex 6.86899 19.636 40
      vertex 6.86899 2.616 40
    endloop
  endfacet
  facet normal 0 0 -1
    outer loop
      vertex 0 0 0
      vertex 20 20 0
      vertex 20 0 0
    endloop
  endfacet
  facet normal -0 0 -1
    outer loop
      vertex 20 20 0
      vertex 0 0 0
      vertex 0 20 0
    endloop
  endfacet
  facet normal -1 0 0
    outer loop
      vertex 0 0 0
      vertex 0 20 40
      vertex 0 20 0
    endloop
  endfacet
  facet normal -1 -0 0
    outer loop
      vertex 0 20 40
      vertex 0 0 0
      vertex 0 0 40
    endloop
  endfacet
  facet normal 0 1 -0
    outer loop
      vertex 20 20 0
      vertex 0 20 40
      vertex 20 20 40
    endloop
  endfacet
  facet normal 0 1 0
    outer loop
      vertex 0 20 40
      vertex 20 20 0
      vertex 0 20 0
    endloop
  endfacet
  facet normal 0 -1 0
    outer loop
      vertex 0 0 0
      vertex 20 0 40
      vertex 0 0 40
    endloop
  endfacet
  facet normal 0 -1 -0
    outer loop
      vertex 20 0 40
      vertex 0 0 0
      vertex 20 0 0
    endloop
  endfacet
  facet normal 0 0 1
    outer loop
      vertex 6.86899 19.636 45
      vertex 4.27899 19.636 45
      vertex 6.86899 2.616 45
    endloop
  endfacet
  facet normal -0 0 1
    outer loop
      vertex 6.86899 2.616 45
      vertex 16.525 0.5 45
      vertex 16.525 2.616 45
    endloop
  endfacet
  facet normal 0 0 1
    outer loop
      vertex 6.86899 2.616 45
      vertex 4.27899 0.5 45
      vertex 16.525 0.5 45
    endloop
  endfacet
  facet normal 0 0 1
    outer loop
      vertex 4.27899 0.5 45
      vertex 6.86899 2.616 45
      vertex 4.27899 19.636 45
    endloop
  endfacet
  facet normal 0 1 -0
    outer loop
      vertex 16.525 2.616 40
      vertex 6.86899 2.616 45
      vertex 16.525 2.616 45
    endloop
  endfacet
  facet normal 0 1 0
    outer loop
      vertex 6.86899 2.616 45
      vertex 16.525 2.616 40
      vertex 6.86899 2.616 40
    endloop
  endfacet
  facet normal 1 -0 0
    outer loop
      vertex 6.86899 2.616 45
      vertex 6.86899 19.636 40
      vertex 6.86899 19.636 45
    endloop
  endfacet
  facet normal 1 0 0
    outer loop
      vertex 6.86899 19.636 40
      vertex 6.86899 2.616 45
      vertex 6.86899 2.616 40
    endloop
  endfacet
  facet normal 0 1 -0
    outer loop
      vertex 6.86899 19.636 40
      vertex 4.27899 19.636 45
      vertex 6.86899 19.636 45
    endloop
  endfacet
  facet normal 0 1 0
    outer loop
      vertex 4.27899 19.636 45
      vertex 6.86899 19.636 40
      vertex 4.27899 19.636 40
    endloop
  endfacet
  facet normal -1 0 0
    outer loop
      vertex 4.27899 0.5 40
      vertex 4.27899 19.636 45
      vertex 4.27899 19.636 40
    endloop
  endfacet
  facet normal -1 -0 0
    outer loop
      vertex 4.27899 19.636 45
      vertex 4.27899 0.5 40
      vertex 4.27899 0.5 45
    endloop
  endfacet
  facet normal 0 -1 0
    outer loop
      vertex 4.27899 0.5 40
      vertex 16.525 0.5 45
      vertex 4.27899 0.5 45
    endloop
  endfacet
  facet normal 0 -1 -0
    outer loop
      vertex 16.525 0.5 45
      vertex 4.27899 0.5 40
      vertex 16.525 0.5 40
    endloop
  endfacet
  facet normal 1 -0 0
    outer loop
      vertex 16.525 0.5 45
      vertex 16.525 2.616 40
      vertex 16.525 2.616 45
    endloop
  endfacet
  facet normal 1 0 0
    outer loop
      vertex 16.525 2.616 40
      vertex 16.525 0.5 45
      vertex 16.525 0.5 40
    endloop
  endfacet
endsolid OpenSCAD_Model
