solid OpenSCAD_Model
  facet normal 1 -0 0
    outer loop
      vertex 20 0 40
      vertex 20 20 0
      vertex 20 20 40
    endloop
  endfacet
  facet normal 1 0 0
    outer loop
      vertex 20 20 0
      vertex 20 0 40
      vertex 20 0 0
    endloop
  endfacet
  facet normal 0 0 1
    outer loop
      vertex 8.68799 17.52 40
      vertex 2.12399 17.52 40
      vertex 8.68799 0.5 40
    endloop
  endfacet
  facet normal 0 0 1
    outer loop
      vertex 17.829 17.52 40
      vertex 20 20 40
      vertex 17.829 19.636 40
    endloop
  endfacet
  facet normal 0 0 1
    outer loop
      vertex 20 20 40
      vertex 2.12399 19.636 40
      vertex 17.829 19.636 40
    endloop
  endfacet
  facet normal 0 0 1
    outer loop
      vertex 2.12399 19.636 40
      vertex 0 20 40
      vertex 2.12399 17.52 40
    endloop
  endfacet
  facet normal -0 0 1
    outer loop
      vertex 0 20 40
      vertex 2.12399 19.636 40
      vertex 20 20 40
    endloop
  endfacet
  facet normal 0 0 1
    outer loop
      vertex 20 20 40
      vertex 17.829 17.52 40
      vertex 20 0 40
    endloop
  endfacet
  facet normal 0 0 1
    outer loop
      vertex 11.265 0.5 40
      vertex 17.829 17.52 40
      vertex 11.265 17.52 40
    endloop
  endfacet
  facet normal 0 0 1
    outer loop
      vertex 17.829 17.52 40
      vertex 11.265 0.5 40
      vertex 20 0 40
    endloop
  endfacet
  facet normal -0 0 1
    outer loop
      vertex 8.68799 0.5 40
      vertex 20 0 40
      vertex 11.265 0.5 40
    endloop
  endfacet
  facet normal 0 0 1
    outer loop
      vertex 0 0 40
      vertex 2.12399 17.52 40
      vertex 0 20 40
    endloop
  endfacet
  facet normal 0 0 1
    outer loop
      vertex 8.68799 0.5 40
      vertex 0 0 40
      vertex 20 0 40
    endloop
  endfacet
  facet normal 0 0 1
    outer loop
      vertex 2.12399 17.52 40
      vertex 0 0 40
      vertex 8.68799 0.5 40
    endloop
  endfacet
  facet normal 0 0 -1
    outer loop
      vertex 0 0 0
      vertex 20 20 0
      vertex 20 0 0
    endloop
  endfacet
  facet normal -0 0 -1
    outer loop
      vertex 20 20 0
      vertex 0 0 0
      vertex 0 20 0
    endloop
  endfacet
  facet normal -1 0 0
    outer loop
      vertex 0 0 0
      vertex 0 20 40
      vertex 0 20 0
    endloop
  endfacet
  facet normal -1 -0 0
    outer loop
      vertex 0 20 40
      vertex 0 0 0
      vertex 0 0 40
    endloop
  endfacet
  facet normal 0 1 -0
    outer loop
      vertex 20 20 0
      vertex 0 20 40
      vertex 20 20 40
    endloop
  endfacet
  facet normal 0 1 0
    outer loop
      vertex 0 20 40
      vertex 20 20 0
      vertex 0 20 0
    endloop
  endfacet
  facet normal 0 -1 0
    outer loop
      vertex 0 0 0
      vertex 20 0 40
      vertex 0 0 40
    endloop
  endfacet
  facet normal 0 -1 -0
    outer loop
      vertex 20 0 40
      vertex 0 0 0
      vertex 20 0 0
    endloop
  endfacet
  facet normal 0 0 1
    outer loop
      vertex 17.829 19.636 45
      vertex 11.265 17.52 45
      vertex 17.829 17.52 45
    endloop
  endfacet
  facet normal 0 0 1
    outer loop
      vertex 11.265 17.52 45
      vertex 8.68799 17.52 45
      vertex 11.265 0.5 45
    endloop
  endfacet
  facet normal 0 0 1
    outer loop
      vertex 17.829 19.636 45
      vertex 8.68799 17.52 45
      vertex 11.265 17.52 45
    endloop
  endfacet
  facet normal -0 0 1
    outer loop
      vertex 2.12399 19.636 45
      vertex 8.68799 17.52 45
      vertex 17.829 19.636 45
    endloop
  endfacet
  facet normal 0 0 1
    outer loop
      vertex 8.68799 17.52 45
      vertex 2.12399 19.636 45
      vertex 2.12399 17.52 45
    endloop
  endfacet
  facet normal 0 0 1
    outer loop
      vertex 11.265 0.5 45
      vertex 8.68799 17.52 45
      vertex 8.68799 0.5 45
    endloop
  endfacet
  facet normal 0 -1 0
    outer loop
      vertex 11.265 17.52 40
      vertex 17.829 17.52 45
      vertex 11.265 17.52 45
    endloop
  endfacet
  facet normal 0 -1 -0
    outer loop
      vertex 17.829 17.52 45
      vertex 11.265 17.52 40
      vertex 17.829 17.52 40
    endloop
  endfacet
  facet normal 1 -0 0
    outer loop
      vertex 17.829 17.52 45
      vertex 17.829 19.636 40
      vertex 17.829 19.636 45
    endloop
  endfacet
  facet normal 1 0 0
    outer loop
      vertex 17.829 19.636 40
      vertex 17.829 17.52 45
      vertex 17.829 17.52 40
    endloop
  endfacet
  facet normal 0 1 -0
    outer loop
      vertex 17.829 19.636 40
      vertex 2.12399 19.636 45
      vertex 17.829 19.636 45
    endloop
  endfacet
  facet normal 0 1 0
    outer loop
      vertex 2.12399 19.636 45
      vertex 17.829 19.636 40
      vertex 2.12399 19.636 40
    endloop
  endfacet
  facet normal -1 0 0
    outer loop
      vertex 2.12399 17.52 40
      vertex 2.12399 19.636 45
      vertex 2.12399 19.636 40
    endloop
  endfacet
  facet normal -1 -0 0
    outer loop
      vertex 2.12399 19.636 45
      vertex 2.12399 17.52 40
      vertex 2.12399 17.52 45
    endloop
  endfacet
  facet normal 0 -1 0
    outer loop
      vertex 2.12399 17.52 40
      vertex 8.68799 17.52 45
      vertex 2.12399 17.52 45
    endloop
  endfacet
  facet normal 0 -1 -0
    outer loop
      vertex 8.68799 17.52 45
      vertex 2.12399 17.52 40
      vertex 8.68799 17.52 40
    endloop
  endfacet
  facet normal -1 0 0
    outer loop
      vertex 8.68799 0.5 40
      vertex 8.68799 17.52 45
      vertex 8.68799 17.52 40
    endloop
  endfacet
  facet normal -1 -0 0
    outer loop
      vertex 8.68799 17.52 45
      vertex 8.68799 0.5 40
      vertex 8.68799 0.5 45
    endloop
  endfacet
  facet normal 0 -1 0
    outer loop
      vertex 8.68799 0.5 40
      vertex 11.265 0.5 45
      vertex 8.68799 0.5 45
    endloop
  endfacet
  facet normal 0 -1 -0
    outer loop
      vertex 11.265 0.5 45
      vertex 8.68799 0.5 40
      vertex 11.265 0.5 40
    endloop
  endfacet
  facet normal 1 -0 0
    outer loop
      vertex 11.265 0.5 45
      vertex 11.265 17.52 40
      vertex 11.265 17.52 45
    endloop
  endfacet
  facet normal 1 0 0
    outer loop
      vertex 11.265 17.52 40
      vertex 11.265 0.5 45
      vertex 11.265 0.5 40
    endloop
  endfacet
endsolid OpenSCAD_Model
